<?xml version="1.0" encoding="UTF-8"?>
<svg id="Layer_2" data-name="Layer 2" xmlns="http://www.w3.org/2000/svg" viewBox="0 0 2187.54 2157.67">
  <defs>
    <style>
      .cls-1 {
        fill: #006046;
      }
    </style>
  </defs>
  <g id="Layer_1-2" data-name="Layer 1">
    <path class="cls-1" d="M771.36,1551.61c-3.89,2.98-.03,4.49,3.63,4.92,346.15,40.68,663.2,106.7,977.28,261.37,10.06,4.95,74.5,37.17,76.81,41.5,1.83,3.43,1.47,5.99-1.21,8.75-16.8,13.46-31.75,29.1-48.23,42.92-20.77,17.43-52.76,44.04-75.21,57.76-5.36,3.28-11.09,7.38-17.71,5.97-218.03-152.2-457.84-282.32-720.82-337-1.26,6.55,1.36,4.3,4.91,6.03,40.67,19.8,83.21,36.22,123.99,55.88,156.97,75.67,311.57,172.05,445.99,282.9,6.67,5.5,49.3,40.37,50.18,43.57.59,2.15.79,4.2.04,6.35-1.64,5.73-51.12,29.17-60.36,33.4-83.87,38.37-221.23,81.14-312.7,88.68-46.47,3.83-51.83-21.69-79.65-50.23-154.38-158.4-327.9-282.51-524.51-384.14-117.98-60.98-245.03-116.83-375.54-144.04-4.41,3.09.98,5.22,2.87,6.98,22.49,20.78,75.64,38.09,105.09,52.51,88.68,43.39,173.33,88.54,255.53,143.39,155.63,103.83,300.81,231.16,420.73,374.66,1.03,5.58-2.44,3.39-6.1,3.66-19.57,1.44-45.97-2.76-65.85-5.6-397.69-56.97-748.95-338.74-887.81-715.26C-152,854.22,207.84,219.85,786.69,46.35c895.31-268.36,1716.41,679.91,1280.31,1521.68-33.85,65.33-86.4,144.67-137.05,197.84-7.1,7.46-16.76,20.27-27.05,19.87-356.62-147.33-740.9-257.5-1131.54-234.12ZM458.62,1048.02v329.98c0,9.18,26.71-.42,29.41-17.38-1.12-97.66.9-195.67,2.58-292.92.68-39.1,1.81-73.47-39.32-91.09,82.44-53.55,159.38-124.34,258.04-145.75,39.74-8.62,84.15-11.93,124.92-10.72,11.35.34,55.68,7.66,62.09,1.97,3.95-6.08,1.25-13.47,6.6-19.26,5.3-5.73,36.09-19.7,45.52-25.9,9.68-6.36,30.12-17.11,11.43-28.29-20.29-12.14-54.8,20.5-60.48,14.95-9.39-83.54,113.66-117.66,126.78-24.65,9.64-8.98,43.5-19.67,34.54-36.96-5.75-11.09-33.29-.69-33.29-8.58v-48.02c22.03-3.92,47.78-4,69.77-.2,9.16,5.82-2.91,38.35,4.13,49.44,17.06-14.13,52.05-18.62,54.26-42.97,1.47-16.14,1.56-116.8-2.89-125.4-3.86-7.47-21.16-18.58-18.41-28.69,3.58-13.14,37.79-21.65,50.17-23.89,9.23-1.67,34.75-1.88,39.97-4.35,6.35-3,10.09-20.6,7.02-25.51-4.12-6.6-51.41-1.92-61.09,1-10.25,3.09-22.69,14.09-32.08,9.71-4.01-1.87-22.17-21.17-21.11-26.05,31.11-37.59,88.56-47.88,135.54-44.07,7.57.61,24.67,1.04,22.36,9.93-1.49,5.74-7.7,15.01-9.92,22.15-11.5,37.06-5.22,64.87,6.16,100.76,31.9-.34,14.03-23.76,12.25-43.04-3-32.38,9.51-79.07,39.52-95.84,13.74-7.68,20.72-10.78,34.52-19.66,129.47-83.34,245.06,71.14,161.12,173.44-2.59,3.16-24.27,21.65-20.95,24.58,32.35-2.66,65.87-7.46,96.02,7.44.75,4.59-3.21,7.09-6.09,9.88-7.19,6.98-26.03,19.23-31.01,25.64-1.88,2.42-2.92,3.84-2.06,7.1.79,2.98,42.09,31.28,49.05,37.34,112.42,97.82,140.31,254.52,67.47,385.43v7.36s92.53,156.4,92.53,156.4c40.31,5.75,87.35-3.51,126.88,1.17,12.71,1.5,14.97,6.36,16.07,18.4,4.21,45.88-10.49,116.14,9.32,155.67,21.65,43.19,54.31,86.31,77.97,128.85,15.4-7.62,63.24-161.57,69.49-186.61,119.5-478.24-165.16-963.19-610.06-1144.29C953.89-36.79,397.33,217.87,183.17,698.69c-9.96,22.37-25.41,56.59-31.27,79.55-.93,3.65-3.52,8.61,2.56,7.49l173.66-102.14c15.13-7.5,33.93-1.9,32.18,17.22-1.11,12.1-11.3,16.1-20.1,21.95-54,35.88-117.84,65.6-173.81,99.51-8.97,5.44-30.56,16.21-34.73,24.37-3.76,7.37-7.45,25.67-9.63,34.69-11.2,46.28-16.92,95.81-20.46,143.28,4.88.81,8.33-1.7,12.4-3.59,45.57-21.15,99.63-67.84,144.47-84.52,31.28-11.64,41.77,23.6,13.86,38.46l-170.5,97.91c-4.51,6.99-3.26,47.81-2.8,58.96,1,24.26,4.31,54.19,7.84,78.35,1.66,11.41,2.89,46.97,16.97,42.41l323.2-208.82,9.02-1.84c-.3,2.39,2.37,4.77,2.59,6.07ZM1505.06,452.21c0-41.2-33.4-74.61-74.6-74.61s-74.6,33.4-74.6,74.61,33.4,74.61,74.6,74.61,74.6-33.4,74.6-74.61ZM1315.52,470.55l2.46-49.23-7.44,25.99,4.98,23.24ZM1194.88,525.96v107.12c7.99-1.4,19.83-8.48,21.64-16.53,5.84-25.9-2.93-67.08-1.93-94.3l-15.64.4-4.07,3.31ZM1367.25,556.72c-17.21-17.17-20.47-36.94-49.4-30.89-10.31,2.16-57.54,30.44-65.23,38.18-9.5,9.56-9.23,17.36-6,29.67,37.07-26.78,72.26-49.13,120.63-36.96ZM1638.1,793.15c-2.84-92.31-103.36-166.85-188.66-176.99-156.91-18.67-274.03,119.9-254.25,271.49,11.43,87.61,75.06,186.17,162.21,213.29-96.88-71.73-155.33-179.47-126.36-302.41,7.67-32.54,23.29-65.65,50.01-86.64-7.93,16.75-19.37,31.31-26.48,48.6-54.51,132.59,28.76,308.96,173.74,332.37,7.76,1.25,35.36,7.51,36.82-2.95,1.27-9.11-25.04-10.32-33.25-12.94-58.6-18.68-106.27-58.27-131.53-114.72-.94-2.1-10.68-22.04-3.27-21.31,2.28.23,22.5,31.59,27.06,36.92,30.67,35.9,68.38,61.71,116.06,68.62,8.93,1.29,30.68,5.85,35.41-2.14-52.17-10.12-100.1-41.19-131.53-83.96-6.16-8.38-19.52-35.54-24.72-39.31-4.74-3.43-12.79-3.26-18.59-6.03-59.09-28.14-31.04-134.35-2.02-176.88,73.58-107.84,226.47-108.73,303.47-3.91,14.17,19.29,20.79,41.86,35.89,58.89ZM1234.28,652.81c-3.2-2.64-61.11,40.27-69.14,45.34-125.41,79.27-267.88,141.6-391.14,222.01-20.69,13.5-40.49,25.95-44.5,52.74l414.95-228.97c3.92-.54,4.11-.25,3.63,3.6-1.46,11.58-12.86,35.65-16.5,50.02-6.48,25.56-24.29,77.72,13.96,81.71,3.83-19.96,2.42-39.41,5.41-59.87,9.11-62.29,44.14-119.07,83.33-166.58ZM1599.7,835.93c0-59.7-48.39-108.09-108.09-108.09s-108.09,48.39-108.09,108.09,48.39,108.09,108.09,108.09,108.09-48.39,108.09-108.09ZM1105.41,821.87c2.95-3.05,12.4-20.95,4.54-21.27l-303.32,164.5c-57.97,23.53-71.9,90-56.19,145.69,2.68,9.48,13.79,42.9,25.87,40.95,19.64-3.16,3.82-18.92-.09-29.81-12.26-34.21-11.46-81.47,7.87-112.88,8.43-13.7,26.15-35.2,43.88-33.67-12.12,36.45-15.49,76.39-.43,112.47,4.1,9.83,17.31,40.34,30.04,26.67,6.13-6.58-8.12-31.21-10.59-41.2-11.1-44.78-1.9-104.91,37.79-133.52,3.11-2.24,20.66-13.43,19.54-5.12-1.27,9.43-7.4,22.13-9.22,32.68-6.91,40.1,1.98,92.79,35.2,118.92l9.89-5.08c2.31-4.65-9.32-21.87-11.66-27.86-11.6-29.63-15.07-51.58-8.69-83.42s30.25-78.77,65.78-79.51c-21.87,47.78-23.09,92.14,1.16,139.16,7.45,14.46,18.79,40.44,37.17,24.62,2.42-3.9-16.6-28.82-19.85-37.02-27.94-70.44-1.91-135.34,60.49-173.37,10.5-6.4,33.64-14.53,40.83-21.96ZM1349.93,854.49c0-13.49-10.93-24.42-24.42-24.42s-24.42,10.93-24.42,24.42,10.93,24.42,24.42,24.42,24.42-10.93,24.42-24.42ZM1667,861c0-10.05-8.15-18.2-18.2-18.2s-18.2,8.15-18.2,18.2,8.15,18.2,18.2,18.2,18.2-8.15,18.2-18.2ZM1062.56,887.37c-3.19,3.25-2.41,7.13-1.51,11.08,2.65,11.62,16.86,38.68,22.59,51.5,35.06,78.4,75.73,154.31,113.22,231.52,3.22,14.25,36.27,20.07,34.56,5.06l-147.74-298.17c-3.12-9.5-16.09-6.12-21.12-.99ZM648.22,921.19c-7.09-6.91-31.57,16.24-29.6,25.81l.39,238.62,5.99,13.74c10.2-2.31,19.52-9.63,20.87-20.73l2.35-257.45ZM544.8,1184.69c15.29,2.33,29.71-11.47,31.79-26.08-3.36-59.71,5.23-125.62.35-184.59-2.36-28.49-32.13,9.96-32.13,12.43v198.23ZM736.87,1009.87c-50.87,12.49-65.84,75.28-55.5,120.73,1.84,8.1,13.75,42.05,20.31,43.9,4.33,1.22,14.14-1.68,15.16-6.09.55-2.38-13.11-37.12-14.18-46.79-4.67-41.92,8.36-79.35,34.21-111.76ZM1677.52,1147.72c2.18-3.04-35-62.83-38.62-63.76-4.86-1.25-38.64,31.67-39.81,36.02-8.9,32.9,60,34.56,78.43,27.74ZM1066.83,1123.1c-6.18-28.18-46.07-26.73-68.44-20.41-121.97,48.05-246.28,90.66-368.01,139.25-22.87,9.13-53.97,19.68-74.95,30.94-14.68,7.88-16.13,11.14-10.89,28.58l10.12.22,476.5-178.53,35.67-.06ZM401.97,1145.27c-4.31-.54-7.67.32-11.61,1.94-32.68,13.45-93.49,55.29-126.07,75.85-44.59,28.14-88.92,57.62-130.72,89.65,88.95-39.51,174.21-86.98,260.36-132.12,12.16-10.02,9.78-21.62,8.04-35.33ZM1061.81,1160.12l-121.45,39.69c-9.46,3.98-10.72,30.91,1.5,28.8l120.76-41.31c8.14-6.44.43-19.2-.8-27.17ZM1096.74,1167.8c-3.44,6.8-5.84,20.9,3.83,23.77,5.91,1.76,34.09-.68,41.37-1.96,6.84-1.21,7.98-6.58,4.99-12.36-3.98-7.72-40.88-11.25-50.19-9.45ZM1601.17,1192.05c-2.09-23.15-31.85-16.14-47.98-17.24-4.86-.33-9.46-2.32-14.7-2.54-80-3.36-162.42,2.7-242.65.13,10.29,13.75,28.42,22.87,45.58,24.58,34.62,3.44,77.15-2.7,113.37-2.56,33.52.13,64.3,1.71,98.28.02l48.11-2.39ZM1213.53,1233.81v32.25s629.25,0,629.25,0v-32.25s-629.25,0-629.25,0ZM1152.34,1236.81c-15.04.73-42.55,12.4-54.66,21.81-64.18,49.88-55.5,153.74,16.73,190.01,13.4,6.73,57.15,20.88,42.31-10.31-2.83-5.95-27.19-11.31-35.55-16.15-52.53-30.4-48.75-116.54,3.1-144.35,8.1-4.34,31.7-9.98,35.03-16.81,2.26-4.63-.52-24.51-6.95-24.19ZM1056.97,1241.34c-64.96,15.19-131.11,24.57-146.63,100.82-8.52,41.89,5.81,105.71,49.27,123.35,23.19,9.41,1.63-11.12-3.1-19.06-18.88-31.67-26.41-65.73-19.56-102.31,6.14-32.8,32.12-71.93,66.88-78.1l3.69,5.79c-31.25,43.81-35.23,98.41-10.56,146.48,11.05,21.54,34.17,48.38,60,49.55,2.02-1.76-19.75-26.94-22.21-30.7-38.68-59.07-35.5-111.28,2.96-169.54,2.23-3.37,21.65-24.12,19.26-26.27ZM401.97,1258.56c-79.88,35.42-159.31,76.12-231.45,125.56l228.81-97.43,4.15-5.88-1.51-22.25ZM776.27,1374.3v35.71c0,9.47,15.63,43.44,23.29,50.59,46.16,43.1,73.4-58.91,75.32-89.87,1.91-30.75-5.36-108.57-51.84-76.41-.72,3.12,7.99,10.07,10.37,14.22,12.02,20.92,9.86,63.62-13.02,76.63-20.82,11.84-41.16-14.27-44.12-10.86ZM1285.98,1509.72c-6.24-32.93-13.26-65.87-20.89-98.52-3.39-14.5-24.91-106.18-29.5-110.85-4.88-4.96-15.84-2.12-22.06-.19-3.07,1.54-1.16,5.51-.82,8.16,7.47,58.52,34.91,125.39,44.24,184.89,4.23,12.94,16.17,17.51,29.02,16.51ZM1344.52,1300.99c-4.53-4.61-22.52-3.76-28.4-1.22-2.76,1.19-3.69-.24-3.04,4.21,18.21,52.06,35.24,104.61,52.42,157.02,8.82,26.92,12.98,73.7,43.63,84.42,7.29,2.55,16.24,1.98,23.46,5.79,8.46-1.35-1.95-25.2-3.73-30.45-25.24-74.15-56.89-146.47-84.34-219.78ZM1542.07,1578.68c-34.13-90.15-74.87-177.72-115.24-265.19-6.72-10.15-13.34-16.58-26.29-15.66-18.9,1.34-12.31,10.64-8.04,22.91,27.61,79.27,63.96,156.05,92.42,235.08,9.74,15.27,40.87,16.77,57.14,22.86ZM1465.98,1300.66c-2.68,3.92,13.68,38.95,16.58,45.75,34.72,81.62,73.55,161.75,109.11,243.03,9,11.22,42.13,12.4,55.1,21.19,4.66-3.62,2.95-2.84,1.65-6.48-3.92-11.04-12.68-27.15-18.04-38.66-40.89-87.93-85.61-174.95-131.33-260.2-9.83-6.88-21.76-9.85-33.07-4.63ZM1573.32,1303.68c-10.8-8.04-21.47-5.97-33.7-3.24l1.11,7.48,156.01,309.41c11.14,16.64,47.96,21.31,66.94,27.83l-112.83-208.5-77.54-132.99ZM1640.57,1300.44l176.07,300.44c4.25,6.86,19.6-4.07,20.09-8.59-46.38-94.88-105-183.58-157.19-275.42-10.93-14.79-20.1-20.99-38.97-16.43ZM1728.37,1298.33c-5.18,1.72-5.14,7.42-2.75,11.82l155.53,260.84c13.67-.17,19.46-11.51,13.6-23.65l-138.87-237.87c-6-10.12-16.16-13.49-27.5-11.15ZM1829.5,1301.16c-7.88-6.53-17.66-.61-26.4-.72l3.19,10.35,131.13,223.45c10.88,13.58,22.62-5.48,13.87-16.31l-121.79-216.77ZM638.4,1411.24c-8.81,37.79,28.85,100.25,66.39,55.34,24.05-28.77,33.88-91.08,15.91-124.13-11.44-21.05-23.33-21.96-42.88-8.78,35.89,30.08,11.94,114.14-39.42,77.58ZM507.88,1435.87c-.83,33.72,29.37,89.18,62.83,46.84,20.99-26.55,29.18-79.9,13.92-110.07-10.59-20.96-18.15-15.21-37.25-8.05-1.35,7.54,5.71,10.39,8.11,17.49,12.25,36.22-5.98,71.98-47.61,53.8ZM401.96,1379.22c-3.45-.48-6.6.22-9.91,1.16-36.74,10.48-98.77,43.91-135.35,61.76-3.55,1.73-6.17-.53-4.92,6.02,20.37-5.62,41.23-10.15,61.54-16,20.07-5.79,65.68-17.69,81.91-26.44,13.73-7.39,7.69-13.93,6.72-26.5ZM374.92,1497.43c14.73-6.45,44.47-4.42,44.55-25.83.05-14-5.29-17.52-18.49-15.85-20.08,2.54-31.14,23.46-26.06,41.68ZM1366.53,1999.04c1.37-1.59,2.2-3.28,2.27-5.4-.51-6.68-25.68-27.31-32.39-33.2-244.07-213.86-528.81-389.74-861.89-401.35-6.6-.23-12.78-3.13-19.48-2.68l-77.67,2.59c-1.19,7.09,1.56,4.06,5.7,5.24,58.77,16.78,132.47,22.82,193.8,35.32,281.35,57.35,467.14,184.7,671.02,377.99,10.04,9.52,48,52.02,55.38,55.42,5.33,2.46,11.39,1.81,16.58-.59,11.61-13.29,35.94-20.88,46.68-33.34ZM635.04,1675.6c-12.84-12.84-27.56-15.81-44.93-17.98l-5.74,3.86c-1.48,5.33,9.01,22.98,12.99,27.18,7.77,8.18,48.43,30.02,59.54,32.81,5.12,1.28,3.3.49,2.41-2.41-3.83-12.45-15.14-34.32-24.28-43.46ZM301.03,1664.89c1.06,6.29,9.88,11.78,14.73,16.02,88.83,77.72,183.41,149.23,261.13,238.91,3.31,2.17,5.97.67,9.08-.68s40.77-27.25,42.28-29.33c4.84-6.67-9.99-17.73-15.8-22.95-18.8-16.86-42.72-34.72-62.98-50.29-76.79-59.04-159.09-113.66-248.44-151.69ZM832.89,1824.92c.88-4.37-1.2-7.09-2.87-10.65-9.69-20.68-46.12-85.9-62.78-97.28-7.6-5.19-60.75-28.24-64.85-25.01l47.89,83.83,82.61,49.11ZM867.4,1775.69l59.09,127,64.01-27.32c2.1-9.4-105.94-91.9-123.11-99.68Z"/>
    <path class="cls-1" d="M1058.95,170.87c87.58-6.52,173.04,23.67,225.59,95.52,30.28,41.41,64.17,109.63-23.14,89.63-4.97-2.17-20.13-36.68-26.11-45.3-36.95-53.25-100.24-80.8-164.73-76.53-107.19,7.09-193.68,90.08-278.75,147.26-92.91,62.44-190.11,118.46-284.74,178.2-20.06,12.71-39.3-2.07-25.92-23.48,125.79-91.96,248.08-192.49,377.06-280.39,62.24-42.41,123.07-79.13,200.74-84.91Z"/>
    <path class="cls-1" d="M1066.84,455.76c-35.95-1.71-71.56,6.32-99.67,29.63-11.54,9.57-17.41,21.25-27.6,31.49-102.11-8.62-174.49,76.58-256.23,122.98-13.47,3.44-36.28-5.55-51.15-6.74-43.07-3.44-82.29,5.75-124.3,9.79l26.3-21.68c90.99-57.51,178.98-128.13,273.35-179.74,84.68-46.31,184.79-56.45,259.31,14.27Z"/>
    <path class="cls-1" d="M1234.28,354.79c-26.01,3.96-51.92,3.61-77,12.9-23.54,8.71-42.3,26.16-62.15,40.71-29.18-29.91-64.73-51.02-106.53-57.82-19.43-3.16-38.1-1.78-57.18-1.89,83.17-76.22,232.99-98.14,302.86,6.11Z"/>
    <path class="cls-1" d="M499.81,700.16c31.98-5.96,33.51,23.16,10.37,37.43-67.43,32.25-135.43,87.6-202.56,117.54-9.68,4.31-17.6,7.24-25-2.94-11.14-15.31,3.09-28.18,15.15-36.45,61.61-42.24,137.88-76.12,202.04-115.59Z"/>
    <path class="cls-1" d="M477.67,815.82c21.57-2.1,26.15,21.55,9.21,36.36-11.68,10.21-116.4,72.64-129.9,76.93-27.09,8.6-34.31-15.83-17.8-32.56,12.02-12.17,103.26-64.94,122.68-74.32,4.41-2.13,11.22-5.97,15.81-6.42Z"/>
    <path class="cls-1" d="M1482.99,926.1c-40.58.25-73.26-28-75.26-68.99-.2-4.09-2.38-6.48,2.63-9.77,6.79,25.36,24.17,47.85,45.77,62.56,8.58,5.85,19.43,9.34,26.86,16.2Z"/>
  </g>
</svg>